<svg width="21" height="22" viewBox="0 0 21 22" fill="none" xmlns="http://www.w3.org/2000/svg">
<path d="M20.4589 6.60919C19.7393 5.88948 18.5682 5.88952 17.8483 6.60935C17.6269 6.83098 16.2132 8.24583 15.9972 8.462V3.58609C15.9972 3.09304 15.8052 2.62953 15.4566 2.28092L13.7163 0.540624C13.3677 0.191967 12.9042 0 12.4111 0H1.84583C0.828041 0 0 0.828041 0 1.84583V19.1556C0 20.1734 0.828041 21.0015 1.84583 21.0015H14.1514C15.1692 21.0015 15.9972 20.1734 15.9972 19.1556V13.6851L20.4589 9.21961C21.1803 8.49826 21.1804 7.33062 20.4589 6.60919ZM12.3056 1.23056C12.4218 1.23056 12.6458 1.21042 12.8462 1.41075L14.5865 3.15104C14.7817 3.34633 14.7667 3.56033 14.7667 3.69167H12.3056V1.23056ZM14.7667 19.1556C14.7667 19.4949 14.4907 19.7709 14.1514 19.7709H1.84583C1.50657 19.7709 1.23056 19.4949 1.23056 19.1556V1.84583C1.23056 1.50657 1.50657 1.23056 1.84583 1.23056H11.075V4.30694C11.075 4.64674 11.3505 4.92222 11.6903 4.92222H14.7667V9.69362C14.7667 9.69362 12.9514 11.5104 12.9514 11.5105L12.0816 12.3802C12.0141 12.4477 11.9632 12.5301 11.933 12.6207L11.0628 15.2311C10.9891 15.4522 11.0467 15.696 11.2115 15.8608C11.3765 16.0258 11.6203 16.083 11.8411 16.0094L14.4515 15.1393C14.5421 15.1091 14.6245 15.0582 14.692 14.9906L14.7667 14.916V19.1556ZM13.3868 12.8153L14.2569 13.6854L13.9246 14.0178L12.6194 14.4528L13.0544 13.1476L13.3868 12.8153ZM15.1269 12.8151L14.2568 11.945C14.7201 11.4812 16.778 9.42163 17.2144 8.98482L18.0845 9.85495L15.1269 12.8151ZM19.5886 8.34965L18.9543 8.98445L18.0842 8.11432L18.7187 7.47932C18.9587 7.2394 19.349 7.23944 19.5888 7.47932C19.8287 7.71927 19.83 8.10825 19.5886 8.34965Z" fill="white"/>
<path d="M11.6903 6.15277H3.07646C2.73666 6.15277 2.46118 6.42825 2.46118 6.76805C2.46118 7.10785 2.73666 7.38333 3.07646 7.38333H11.6903C12.0301 7.38333 12.3056 7.10785 12.3056 6.76805C12.3056 6.42825 12.0301 6.15277 11.6903 6.15277Z" fill="white"/>
<path d="M9.22924 8.61392H3.07646C2.73666 8.61392 2.46118 8.8894 2.46118 9.2292C2.46118 9.569 2.73666 9.84448 3.07646 9.84448H9.22924C9.56903 9.84448 9.84452 9.569 9.84452 9.2292C9.84452 8.8894 9.56903 8.61392 9.22924 8.61392Z" fill="white"/>
<path d="M9.22924 11.075H3.07646C2.73666 11.075 2.46118 11.3504 2.46118 11.6902C2.46118 12.03 2.73666 12.3055 3.07646 12.3055H9.22924C9.56903 12.3055 9.84452 12.03 9.84452 11.6902C9.84452 11.3504 9.56903 11.075 9.22924 11.075Z" fill="white"/>
<path d="M9.22924 13.5361H3.07646C2.73666 13.5361 2.46118 13.8116 2.46118 14.1514C2.46118 14.4912 2.73666 14.7667 3.07646 14.7667H9.22924C9.56903 14.7667 9.84452 14.4912 9.84452 14.1514C9.84452 13.8116 9.56903 13.5361 9.22924 13.5361Z" fill="white"/>
<path d="M11.6902 17.3098H7.99858C7.65878 17.3098 7.3833 17.5852 7.3833 17.925C7.3833 18.2648 7.65878 18.5403 7.99858 18.5403H11.6902C12.03 18.5403 12.3055 18.2648 12.3055 17.925C12.3055 17.5852 12.03 17.3098 11.6902 17.3098Z" fill="white"/>
</svg>
