<svg width="14" height="13" viewBox="0 0 14 13" fill="none" xmlns="http://www.w3.org/2000/svg">
<path d="M13.7103 6.39349L7.3493 0.142369C7.3035 0.0972385 7.2491 0.0614337 7.18921 0.0370042C7.12932 0.0125746 7.06512 0 7.00029 0C6.93545 0 6.87126 0.0125746 6.81137 0.0370042C6.75148 0.0614337 6.69708 0.0972385 6.65128 0.142369L0.290327 6.39349C0.105012 6.57574 0 6.8233 0 7.08148C0 7.61759 0.443213 8.05347 0.988349 8.05347H1.65857V12.514C1.65857 12.7828 1.87941 13 2.15275 13H6.01194V9.59803H7.74155V13H11.8478C12.1212 13 12.342 12.7828 12.342 12.514V8.05347H13.0122C13.2748 8.05347 13.5265 7.95172 13.7118 7.76795C14.0963 7.38827 14.0963 6.77318 13.7103 6.39349Z" fill="#FFBD54"/>
</svg>
